Filename..................................: Vettaikaran_2009__Xvid_1CDPdvdRip_Mp3_

Genre.....................................: Action | Romance | Comedy
Video.....................................: XviD | 608×256
Directed By...............................: Babu Sivan
Starring..................................: Vijay, Anushka Shetty, Salim Ghouse, Sri Hari,Sri Nath
Format : AVI
Format/Info : Audio Video Interleave
File size : 699 MiB
Duration : 2h 51mn

Format : MPEG-4 Visual
Codec ID : XVID
Duration : 2h 51mn
Bit rate : 525 Kbps
Width : 608 pixels
Height : 256 pixels
Frame rate : 23.976 fps
Resolution : 24 bits
Scan type : Progressive
Bits/(Pixel*Frame) : 0.141
Stream size : 646 MiB (92%)
Writing library : XviD 1.2.1

Format : MPEG Audio
Format version : Version 2
Format profile : Layer 3
Codec ID/Hint : MP3
Duration : 2h 51mn
Bit rate mode : Constant
Bit rate : 40.0 Kbps
Channel(s) : 2 channels
Sampling rate : 16.0 KHz
Resolution : 16 bits
Stream size : 49.2 MiB (7%)



Enjoy A Quality Release By xRG